<?xml version="1.0" standalone="yes"?>
<svg xmlns="http://www.w3.org/2000/svg" width="731" height="507">
<path style="fill:#ebebe5; stroke:none;" d="M0 0L0 507L731 507L731 0L0 0z"/>
<path style="fill:#d3d3d3; stroke:none;" d="M147 46C156.452 41.9949 168.872 44 179 44L245 44L474 44L548 44C558.93 44 572.813 41.6833 583 46C579.526 40.6419 567.794 43 562 43L500 43L241 43L171 43C164.795 43 150.686 40.315 147 46z"/>
<path style="fill:#c1c1c0; stroke:none;" d="M149.667 44.3333L150.333 44.6667L149.667 44.3333z"/>
<path style="fill:#b4b4b3; stroke:none;" d="M148 45L148 46L150 48C161.307 45.3081 174.412 47 186 47L255 47L475 47L552 47C557.932 47 573.991 44.1973 578.397 48.6034C581.131 51.3373 580 57.4968 580 61L580 96L580 236L581 236L581 109C581 89.1674 584.594 65.2984 580 46L582 61L582 97L582 238C586.807 226.544 583 206.468 583 194L583 91L583 58C583 54.5961 584.15 48.4535 581.397 45.858C576.266 41.0212 559.66 44 553 44L475 44L257 44L187 44C174.215 44 160.598 42.6613 148 45z"/>
<path style="fill:#c1c1c0; stroke:none;" d="M579.667 44.3333L580.333 44.6667L579.667 44.3333M147 46L147 238L148 238L148 103L148 64L147 46z"/>
<path style="fill:#989898; stroke:none;" d="M148 46L148 238L150 238L150 46L148 46M580 46L581 99L581 198L581 239L582 239L582 95L582 59L580 46z"/>
<path style="fill:#c1c1c0; stroke:none;" d="M580 237L580 236L151 236L151 48L442 48L534 48L580 49C574.253 44.6457 562.029 47 555 47L492 47L247 47L177 47C171.154 47 156.29 44.3155 151.603 48.0278C149.082 50.0248 150 55.197 150 58L150 85L150 195L150 225C150 227.98 148.927 233.853 151.603 235.972C156.849 240.127 174.402 237 181 237L263 237L580 237z"/>
<path style="fill:#d3d3d3; stroke:none;" d="M151 48L151 236L580 236L580 98L580 63C580 59.4689 581.301 52.5433 578.972 49.6034C575.525 45.2506 558.239 48 553 48L474 48L151 48z"/>
<path style="fill:#b4b4b3; stroke:none;" d="M150 236L148 239L182 240L245 240L446 240L537 240L581 239C574.338 233.953 558.216 237 550 237L468 237L253 237L186 237C174.412 237 161.307 238.692 150 236z"/>
<path style="fill:#d3d3d3; stroke:none;" d="M147 238C150.922 244.714 164.163 242 171 242L243 242L497 242L560 242C566.895 242 577.873 244.236 583 239C572.309 242.897 559.263 241 548 241L482 241L254 241L179 241C169.175 241 155.484 243.597 147 238z"/>
<path style="fill:#c1c1c0; stroke:none;" d="M582 238L583 239L582 238M148.667 239.333L149.333 239.667L148.667 239.333M580.667 239.333L581.333 239.667L580.667 239.333M150 240L150 241L580 241C569.972 236.792 552.896 240 542 240L454 240L150 240z"/>
<path style="fill:#d3d3d3; stroke:none;" d="M147 268C161.089 262.865 180.104 266 195 266L294 266C311.115 266 333.842 262.111 350 268C347.383 263.963 342.394 265 338 265L305 265L188 265C178.091 265 154.136 260.713 147 268M380 268C394.089 262.865 413.104 266 428 266L527 266C544.115 266 566.843 262.111 583 268C580.383 263.963 575.394 265 571 265L538 265L421 265C411.091 265 387.136 260.713 380 268z"/>
<path style="fill:#c1c1c0; stroke:none;" d="M150 266L150 267L347 267L328 266L288 266L150 266M383 266L383 267L580 267L561 266L521 266L383 266M148 267C142.914 284.207 147 308.03 147 326L147 418C147 431.588 144.148 448.968 148 462L149 462L148 413L148 314L148 267z"/>
<path style="fill:#b4b4b3; stroke:none;" d="M149 267L150 271C165.159 267.391 183.438 270 199 270L295 270C309.927 270 335.692 274.925 349 268L330 267L290 267L149 267z"/>
<path style="fill:#c1c1c0; stroke:none;" d="M381 267C375.914 284.207 380 308.03 380 326L380 418C380 431.588 377.148 448.968 381 462L382 462L381 413L381 314L381 267z"/>
<path style="fill:#b4b4b3; stroke:none;" d="M382 267L383 271C398.159 267.391 416.438 270 432 270L528 270C542.927 270 568.692 274.925 582 268L563 267L523 267L382 267z"/>
<path style="fill:#989898; stroke:none;" d="M148 268L148 461L150 461L150 268L148 268M347 268L348 365L347 461L349 448L349 412L349 268L347 268z"/>
<path style="fill:#c1c1c0; stroke:none;" d="M349 268L350 269L349 268z"/>
<path style="fill:#989898; stroke:none;" d="M381 268L381 461L383 461L383 268L381 268M580 268L581 364L580 461L582 448L582 412L582 268L580 268z"/>
<path style="fill:#c1c1c0; stroke:none;" d="M582 268L583 269L582 268z"/>
<path style="fill:#b4b4b3; stroke:none;" d="M349 269L349 460L350 460L350 326L350 287L349 269M582 269L582 460L583 460L583 326L583 287L582 269z"/>
<path style="fill:#c1c1c0; stroke:none;" d="M347 459L347 458L151 458L151 271L347 271C335.306 266.093 314.73 270 302 270L198 270L164 270C160.672 270 154.385 268.825 151.603 271.028C148.927 273.147 150 279.02 150 282L150 311L150 421L150 448C150 450.803 149.082 455.975 151.603 457.972C154.698 460.423 162.269 459 166 459L203 459L347 459M580 459L580 458L384 458L384 271L580 271C568.306 266.093 547.73 270 535 270L431 270L397 270C393.672 270 387.385 268.825 384.603 271.028C381.927 273.147 383 279.02 383 282L383 311L383 421L383 448C383 450.803 382.082 455.975 384.603 457.972C387.698 460.423 395.269 459 399 459L436 459L580 459z"/>
<path style="fill:#d3d3d3; stroke:none;" d="M151 271L151 458L347 458L347 271L151 271z"/>
<path style="fill:#b4b4b3; stroke:none;" d="M347 271L347 458L348 458L348 327L348 289L347 271z"/>
<path style="fill:#d3d3d3; stroke:none;" d="M384 271L384 458L580 458L580 271L384 271z"/>
<path style="fill:#b4b4b3; stroke:none;" d="M580 271L580 458L581 458L581 327L581 289L580 271M150 458L149 462L349 462L349 461C335.692 454.075 309.927 459 295 459L199 459C183.438 459 165.159 461.609 150 458M383 458L382 462L582 462L582 461C568.692 454.075 542.927 459 528 459L432 459C416.438 459 398.159 461.609 383 458z"/>
<path style="fill:#c1c1c0; stroke:none;" d="M349 460L350 461L349 460M582 460L583 461L582 460z"/>
<path style="fill:#d3d3d3; stroke:none;" d="M147 461L148 462L147 461M349 461C334.464 467.995 308.072 463 292 463L198 463C181.739 463 164.01 464.972 148 462L148 463C161.141 467.803 181.929 464 196 464L302 464L339 464C341.547 464 350.49 465.006 349 461M380 461L381 462L380 461M582 461C567.464 467.995 541.072 463 525 463L431 463C414.739 463 397.01 464.972 381 462L381 463C394.141 467.803 414.929 464 429 464L535 464L572 464C574.547 464 583.49 465.006 582 461z"/>
<path style="fill:#c1c1c0; stroke:none;" d="M150 462L150 463L347 463L328 462L288 462L150 462M383 462L383 463L580 463L561 462L521 462L383 462z"/>
</svg>
