<?xml version="1.0" standalone="yes"?>
<svg xmlns="http://www.w3.org/2000/svg" width="731" height="507">
<path style="fill:#ebebe5; stroke:none;" d="M0 0L0 507L731 507L731 0L0 0z"/>
<path style="fill:#d3d3d3; stroke:none;" d="M148.742 44.0278C146.187 46.0949 147.001 51.1274 147 54L147 82L147 198L147 230C147 233.342 146.069 238.653 149.318 240.821C154.751 244.446 167.648 242 174 242L239 242L485 242L557 242C562.876 242 577.843 244.673 582.258 240.258C584.88 237.635 584 232.351 584 229L584 201L584 87L584 55C584 51.6592 584.937 46.1996 581.682 44.0278C576.404 40.5057 563.208 43 557 43L492 43L246 43L175 43C169.052 43 153.462 40.2093 148.742 44.0278z"/>
<path style="fill:#b5b5b4; stroke:none;" d="M148 45L148 46L151 46C148.025 58.4939 150 73.1878 150 86L150 164C150 187.491 145.562 216.157 151 239L148 238L148 239L180 240L244 240L454 240L541 240L583 239L583 238L580 239L581 189L581 95L581 59L583 46C575.806 41.085 560.534 44 552 44L473 44L253 44L184 44C172.412 44 159.307 42.3081 148 45z"/>
<path style="fill:#a3a4a3; stroke:none;" d="M148 46L148 191L148 226C148 230.571 146.773 236.26 151 239L151 238L151 237C147.496 237 149 229.946 149 227L149 193L149 85L149 57C149 53.5907 149.864 48.5627 148 46z"/>
<path style="fill:#979797; stroke:none;" d="M149 46L149 238L150 238L150 103L150 64L149 46z"/>
<path style="fill:#a3a4a3; stroke:none;" d="M150.333 46.6667L150.667 47.3333L150.333 46.6667M580.333 46.6667L580.667 47.3333L580.333 46.6667z"/>
<path style="fill:#979797; stroke:none;" d="M581 46L581 238L582 238L582 103L582 64L581 46z"/>
<path style="fill:#a3a4a3; stroke:none;" d="M582 46L582 238L583 238L583 103L583 64L582 46z"/>
<path style="fill:#d3d3d3; stroke:none;" d="M151 48L151 236L580 236L580 48L151 48z"/>
<path style="fill:#a3a4a3; stroke:none;" d="M580 236L582 239L580 236z"/>
<path style="fill:#d3d3d3; stroke:none;" d="M149.318 266.028C144.701 269.108 147 282.121 147 287L147 351L147 431C147 438.467 143.831 455.393 148.028 461.682C151.632 467.083 171.057 464 177 464L250 464C256.838 464 271.897 466.833 277.682 462.972C282.299 459.892 280 446.879 280 442L280 378L280 298C280 290.533 283.169 273.607 278.972 267.318C275.368 261.917 255.943 265 250 265L177 265C170.162 265 155.103 262.167 149.318 266.028M301.148 266.028C295.432 269.412 298 283.315 298 289L298 359L298 432C298 439.632 295.255 453.871 298.938 460.656C302.581 467.366 322.405 464 329 464L400 464C407.907 464 422.433 466.811 429.517 463.142C435.554 460.015 433 446.632 433 441L433 373L433 298C433 290.133 435.854 275.33 432.062 268.344C428.419 261.634 408.595 265 402 265L330 265C322.517 265 307.68 262.161 301.148 266.028M453.318 266.028C448.701 269.108 451 282.121 451 287L451 351L451 431C451 438.467 447.831 455.393 452.028 461.682C455.632 467.083 475.057 464 481 464L554 464C560.839 464 575.897 466.833 581.682 462.972C586.299 459.892 584 446.879 584 442L584 378L584 298C584 290.533 587.169 273.607 582.972 267.318C579.368 261.917 559.943 265 554 265L481 265C474.162 265 459.103 262.167 453.318 266.028z"/>
<path style="fill:#b5b5b4; stroke:none;" d="M148 268L148 269L151 268C148.025 280.494 150 295.188 150 308L150 386C150 409.491 145.562 438.157 151 461L148 460L148 461C157.206 465.43 170.927 463 181 463L248 463C257.565 463 270.248 465.212 279 461L279 460L276 461C281.438 438.157 277 409.491 277 386L277 308C277 295.188 278.975 280.494 276 268L279 269C272.489 262.9 256.499 266 248 266L179 266C169.435 266 156.752 263.788 148 268M302.318 267.028C297.701 270.108 300 283.121 300 288L300 351L300 431C300 438.257 296.943 454.561 301.028 460.682C304.632 466.083 324.057 463 330 463L402 463C408.629 463 423.065 465.72 428.682 461.972C433.299 458.892 431 445.879 431 441L431 378L431 298C431 290.742 434.057 274.439 429.972 268.318C426.368 262.917 406.943 266 401 266L329 266C322.371 266 307.935 263.28 302.318 267.028M452 268L452 269L455 268C449.491 291.138 454 320.204 454 344L454 421C454 433.812 452.025 448.506 455 461L452 460L452 461C461.206 465.431 474.927 463 485 463L552 463C561.565 463 574.248 465.212 583 461L583 460L580 461C585.438 438.157 581 409.491 581 386L581 308C581 295.188 582.974 280.494 580 268L583 269C576.489 262.9 560.499 266 552 266L483 266C473.435 266 460.752 263.788 452 268z"/>
<path style="fill:#a3a4a3; stroke:none;" d="M302 267L301 271L302 267M428 267L428 271L429 271L428 267z"/>
<path style="fill:#979797; stroke:none;" d="M149 268L149 461L150 461L150 325L150 286L149 268z"/>
<path style="fill:#a3a4a3; stroke:none;" d="M150.333 268.667L150.667 269.333L150.333 268.667M276.333 268.667L276.667 269.333L276.333 268.667z"/>
<path style="fill:#979797; stroke:none;" d="M277 268L277 461L278 461L278 325L278 286L277 268M302.333 268.667L302.667 269.333L302.333 268.667M428.333 268.667L428.667 269.333L428.333 268.667M453 268L453 461L454 461L454 325L454 286L453 268z"/>
<path style="fill:#a3a4a3; stroke:none;" d="M454.333 268.667L454.667 269.333L454.333 268.667M580.333 268.667L580.667 269.333L580.333 268.667z"/>
<path style="fill:#979797; stroke:none;" d="M581 268L581 461L582 461L582 325L582 286L581 268z"/>
<path style="fill:#a3a4a3; stroke:none;" d="M148 269L148 460L149 460L149 326L149 287L148 269M278 269L278 460L279 460L279 326L279 287L278 269M452 269L452 460L453 460L453 326L453 287L452 269M582 269L582 460L583 460L583 326L583 287L582 269z"/>
<path style="fill:#d3d3d3; stroke:none;" d="M151 270L151 459L276 459L276 270L151 270M304 270L304 459L427 459L427 270L304 270M455 270L455 459L580 459L580 270L455 270z"/>
<path style="fill:#a3a4a3; stroke:none;" d="M301 458L302 462L303 462L303 458L301 458M428 458L428 462L429 462L430 458L428 458M150.333 459.667L150.667 460.333L150.333 459.667M276.333 459.667L276.667 460.333L276.333 459.667z"/>
<path style="fill:#979797; stroke:none;" d="M302.333 459.667L302.667 460.333L302.333 459.667M428.333 459.667L428.667 460.333L428.333 459.667z"/>
<path style="fill:#a3a4a3; stroke:none;" d="M454.333 459.667L454.667 460.333L454.333 459.667M580.333 459.667L580.667 460.333L580.333 459.667z"/>
</svg>
