<?xml version="1.0" standalone="yes"?>
<svg xmlns="http://www.w3.org/2000/svg" width="731" height="507">
<path style="fill:#ebebe5; stroke:none;" d="M0 0L0 506L730 506L730 171L730 62L731 0L0 0z"/>
<path style="fill:#d3d3d3; stroke:none;" d="M730 3L730 506L0 506L0 507L731 507L731 150L731 47C731 34.5324 734.807 14.4557 730 3M146 45C155.452 40.9949 167.872 43 178 43L244 43L473 43L547 43C557.93 43 571.813 40.6833 582 45C578.526 39.6419 566.794 42 561 42L499 42L240 42L170 42C163.795 42 149.686 39.315 146 45z"/>
<path style="fill:#c0c0bf; stroke:none;" d="M148.667 43.3333L149.333 43.6667L148.667 43.3333z"/>
<path style="fill:#b4b4b3; stroke:none;" d="M146 170L147 170L147 79C147 70.1974 143.613 52.1104 149 45C146.591 55.1171 148 66.6373 148 77L148 137C148 146.354 151.111 162.679 147 171L147 172L581 172L581 171C571.243 165.923 554.844 169 544 169L459 169L149 169L149 79C149 72.2506 145.664 52.5424 150.603 47.6034C155.224 42.9826 172.74 46 179 46L261 46L478 46L545 46C556.588 46 569.693 47.692 581 45C574.662 40.6698 562.474 43 555 43L491 43L245 43L173 43C166.864 43 152.37 40.3647 147.603 44.858C142.59 49.5841 146 70.3203 146 77L146 170z"/>
<path style="fill:#c0c0bf; stroke:none;" d="M579 43L580 44L579 43z"/>
<path style="fill:#969696; stroke:none;" d="M147 45L147 139C147 146.032 143.638 166.314 149 171L148 108L149 45L147 45M579 45L579 171L581 171L581 45L579 45z"/>
<path style="fill:#c0c0bf; stroke:none;" d="M581 45L581 171L582 171L582 83C582 72.1041 585.208 55.0273 581 45M149 47L149 48L195 47L287 47L579 47L544 46L464 46L248 46L182 46L149 47z"/>
<path style="fill:#d3d3d3; stroke:none;" d="M149 168L579 168L579 47L256 47L177 47C171.62 47 153.552 44.1541 150.028 48.6034C145.653 54.1269 149 73.0263 149 80L149 168z"/>
<path style="fill:#c0c0bf; stroke:none;" d="M149 168L149 169L579 169C568.972 164.792 551.896 168 541 168L453 168L149 168M146 170L147 171L146 170z"/>
<path style="fill:#d3d3d3; stroke:none;" d="M146 171C150.135 176.852 165.415 174 172 174L249 174L477 174L547 174C557.662 174 570.758 176.027 581 173L581 172C549.215 177.901 512.343 173 480 173L277 173L189 173C175.495 173 158.789 175.661 146 171M581 171L582 172L581 171z"/>
<path style="fill:#c0c0bf; stroke:none;" d="M149 172L149 173L579 173C568.973 168.792 551.896 172 541 172L453 172L149 172z"/>
<path style="fill:#d3d3d3; stroke:none;" d="M146 200C160.607 194.676 180.548 198 196 198L299 198L333 198C338.365 198 343.86 197.121 348 201C348.117 196.348 341.385 197.006 338 197L303 197L187 197C177.091 197 153.136 192.713 146 200M379 200C393.607 194.676 413.548 198 429 198L532 198L566 198C571.365 198 576.86 197.121 581 201C581.117 196.348 574.385 197.006 571 197L536 197L420 197C410.091 197 386.136 192.713 379 200z"/>
<path style="fill:#c0c0bf; stroke:none;" d="M146 200L146 201C163.961 194.454 189.948 199 209 199L299 199C314.946 199 332.3 197.085 348 200C343.725 197.079 338.006 198 333 198L300 198L192 198C178.664 198 158.111 194.172 146 200M379 200L379 201C396.961 194.454 422.948 199 442 199L532 199C547.946 199 565.3 197.085 581 200C576.725 197.079 571.006 198 566 198L533 198L425 198C411.664 198 391.111 194.172 379 200z"/>
<path style="fill:#b4b4b3; stroke:none;" d="M148 200L148 201C161.868 205.099 180.535 202 195 202L295 202C311.172 202 330.249 199.25 346 203L348 200C333.729 196.602 316.646 199 302 199L212 199C192.571 199 166.598 194.503 148 200M381 200L381 201C394.311 204.935 412.119 202 426 202L520 202C538.261 202 562.515 206.168 580 201C575.923 197.911 569.941 199 565 199L531 199L429 199C414.243 199 395.146 195.819 381 200z"/>
<path style="fill:#969696; stroke:none;" d="M147 200L147 344L147 380L149 393L148 344L148 252L148 215L147 200M380 200L380 344L380 380L382 393L381 344L381 252L381 215L380 200M580 200C574.749 217.763 579 242.447 579 261L579 393L581 393L581 257L581 218L580 200z"/>
<path style="fill:#b4b4b3; stroke:none;" d="M146 201L146 342L146 379L147.028 392.397L160 394L197 394L348 394L348 393L346 391L296 392L197 392L162 392L150.028 389.682L149 375L149 339L149 203L148 203L148 330C148 349.833 144.405 373.702 149 393C145.911 388.923 147 382.941 147 378L147 345L147 244C147 231.794 150.707 212.218 146 201z"/>
<path style="fill:#969696; stroke:none;" d="M346 201L346 393L348 393L348 201L346 201z"/>
<path style="fill:#c0c0bf; stroke:none;" d="M348 201L348 393L349 393L349 258L349 219L348 201z"/>
<path style="fill:#b4b4b3; stroke:none;" d="M379 201L379 342L379 379L380.028 392.397L393 394L430 394L581 394L581 393L532 392L435 392L397 392L383.603 390.397L382 378L382 343L382 203L381 203L381 330C381 349.832 377.405 373.702 382 393C378.911 388.923 380 382.941 380 378L380 345L380 244C380 231.794 383.707 212.218 379 201z"/>
<path style="fill:#c0c0bf; stroke:none;" d="M581 201L581 393L582 393L582 258L582 219L581 201M149 202L149 203L345 203L345 391L214 391C193.558 391 168.889 394.735 149 390C157.143 396.169 179.839 392 190 392L301 392L333 392C336.151 392 342.739 393.216 344.972 390.397C348.795 385.569 346 370.034 346 364L346 292L346 225C346 220.33 348.355 206.163 344.397 203.028C341.302 200.577 333.731 202 330 202L293 202L149 202M382 202L382 203L579 203L560 202L520 202L382 202z"/>
<path style="fill:#d3d3d3; stroke:none;" d="M149 203L149 341L149 376L150.028 389.397L162 391L198 391L345 391L345 203L149 203M382 203L382 341L382 376L383.028 389.397L396 391L432 391L579 391L579 203L382 203z"/>
<path style="fill:#c0c0bf; stroke:none;" d="M382 390L383 391L382 390M383 391L383 392L579 392L560 391L521 391L383 391z"/>
<path style="fill:#d3d3d3; stroke:none;" d="M146 393C148.482 396.829 152.794 396 157 396L185 396L305 396L337 396C341.394 396 346.383 397.037 349 393C335.915 398.545 316.105 395 302 395L198 395C182.58 395 160.282 399.052 146 393M379 393C381.617 397.037 386.606 396 391 396L423 396L543 396L571 396C575.206 396 579.518 396.829 582 393C568.915 398.545 549.105 395 535 395L431 395C415.58 395 393.282 399.052 379 393z"/>
<path style="fill:#c0c0bf; stroke:none;" d="M148 394L148 395L347 395L328 394L288 394L148 394M381 394L381 395L580 395L561 394L521 394L381 394z"/>
<path style="fill:#d3d3d3; stroke:none;" d="M146 421L146 422C158.287 419.719 171.532 421 184 421L250 421L457 421L542 421C554.258 421 570.599 418.169 582 423C578.183 417.112 562.471 420 556 420L479 420L250 420L180 420C169.338 420 156.242 417.973 146 421z"/>
<path style="fill:#c0c0bf; stroke:none;" d="M148.667 421.333L149.333 421.667L148.667 421.333z"/>
<path style="fill:#b4b4b3; stroke:none;" d="M146 459L147 459C147 449.786 143.382 430.416 149 423L147 460L147 461L581 461L581 460C571.243 454.923 554.845 458 544 458L459 458L149 458C149 451.054 145.548 430.659 150.603 425.603C155.117 421.09 171.903 424 178 424L255 424L476 424L545 424C556.588 424 569.693 425.692 581 423C574.316 418.434 560.9 421 553 421L481 421L238 421L174 421C167.236 421 154.17 418.517 148.318 422.318C145.259 424.305 146.001 428.869 146 432L146 459z"/>
<path style="fill:#c0c0bf; stroke:none;" d="M579 421L580 422L579 421M146 422L147 423L146 422z"/>
<path style="fill:#969696; stroke:none;" d="M147 423L147 449L149 460C146.869 448.521 146.869 434.479 149 423L147 423M579 423L579 460L581 460L581 423L579 423z"/>
<path style="fill:#c0c0bf; stroke:none;" d="M581 423L581 460L582 460C582 449.351 585.111 432.798 581 423M149 425L149 426L195 425L287 425L579 425L544 424L464 424L248 424L182 424L149 425z"/>
<path style="fill:#d3d3d3; stroke:none;" d="M149 457L579 457L579 425L252 425L176 425C170.761 425 153.475 422.251 150.028 426.603C145.751 432.003 149 450.177 149 457z"/>
<path style="fill:#c0c0bf; stroke:none;" d="M149 457L149 458L579 458C568.973 453.792 551.896 457 541 457L453 457L149 457M146 459L147 460L146 459z"/>
<path style="fill:#d3d3d3; stroke:none;" d="M146 460C150.135 465.852 165.415 463 172 463L249 463L477 463L547 463C557.662 463 570.758 465.027 581 462L581 461C549.215 466.901 512.343 462 480 462L277 462L189 462C175.496 462 158.789 464.661 146 460M581 460L582 461L581 460z"/>
<path style="fill:#c0c0bf; stroke:none;" d="M149 461L149 462L579 462C568.973 457.792 551.896 461 541 461L453 461L149 461z"/>
</svg>
